<svg xmlns="http://www.w3.org/2000/svg" width="256" height="256" viewBox="0 0 256 256">
  <defs>
    <linearGradient id="bg" x1="0" y1="0" x2="1" y2="1">
      <stop offset="0" stop-color="#f2f2f2" />
      <stop offset="1" stop-color="#cfcfcf" />
    </linearGradient>
    <radialGradient id="bubbleA" cx="50%" cy="50%" r="50%">
      <stop offset="0" stop-color="#ffffff" stop-opacity="0.9" />
      <stop offset="0.7" stop-color="#d9d9d9" stop-opacity="0.6" />
      <stop offset="1" stop-color="#aaaaaa" stop-opacity="0.2" />
    </radialGradient>
    <radialGradient id="bubbleB" cx="50%" cy="50%" r="50%">
      <stop offset="0" stop-color="#fefefe" stop-opacity="0.95" />
      <stop offset="0.6" stop-color="#c9c9c9" stop-opacity="0.5" />
      <stop offset="1" stop-color="#9f9f9f" stop-opacity="0.15" />
    </radialGradient>
    <pattern id="dust" width="6" height="6" patternUnits="userSpaceOnUse">
      <circle cx="1" cy="1" r="0.6" fill="#000" opacity="0.15" />
      <circle cx="5" cy="4" r="0.5" fill="#000" opacity="0.12" />
    </pattern>
  </defs>

  <rect width="256" height="256" fill="url(#bg)" />
  <rect width="256" height="256" fill="url(#dust)" opacity="0.25" />

  <circle cx="213" cy="44" r="23" fill="url(#bubbleA)" />
  <circle cx="46" cy="49" r="20" fill="url(#bubbleB)" />
  <circle cx="127" cy="197" r="23" fill="url(#bubbleA)" />
  <circle cx="173" cy="101" r="15" fill="url(#bubbleB)" />
  <circle cx="106" cy="126" r="9" fill="url(#bubbleA)" />
  <circle cx="77" cy="126" r="17" fill="url(#bubbleB)" />
  <circle cx="205" cy="9" r="20" fill="url(#bubbleA)" />
  <circle cx="17" cy="22" r="26" fill="url(#bubbleB)" />
  <circle cx="145" cy="181" r="10" fill="url(#bubbleA)" />
  <circle cx="52" cy="196" r="17" fill="url(#bubbleB)" />
  <circle cx="180" cy="173" r="15" fill="url(#bubbleA)" />
  <circle cx="160" cy="141" r="7" fill="url(#bubbleB)" />
  <circle cx="249" cy="135" r="22" fill="url(#bubbleA)" />
  <circle cx="120" cy="254" r="11" fill="url(#bubbleB)" />
  <circle cx="104" cy="240" r="23" fill="url(#bubbleA)" />
  <circle cx="35" cy="128" r="22" fill="url(#bubbleB)" />
  <circle cx="99" cy="222" r="17" fill="url(#bubbleA)" />
  <circle cx="22" cy="138" r="28" fill="url(#bubbleB)" />
  <circle cx="152" cy="39" r="13" fill="url(#bubbleA)" />
  <circle cx="117" cy="136" r="14" fill="url(#bubbleB)" />
  <circle cx="108" cy="38" r="20" fill="url(#bubbleA)" />
  <circle cx="124" cy="66" r="10" fill="url(#bubbleB)" />
  <circle cx="249" cy="69" r="23" fill="url(#bubbleA)" />
  <circle cx="17" cy="46" r="7" fill="url(#bubbleB)" />
  <circle cx="235" cy="39" r="19" fill="url(#bubbleA)" />
  <circle cx="161" cy="108" r="19" fill="url(#bubbleB)" />
  <circle cx="6" cy="231" r="11" fill="url(#bubbleA)" />
  <circle cx="187" cy="202" r="24" fill="url(#bubbleB)" />
  <circle cx="127" cy="82" r="6" fill="url(#bubbleA)" />
  <circle cx="159" cy="234" r="16" fill="url(#bubbleB)" />
  <circle cx="74" cy="18" r="28" fill="url(#bubbleA)" />
  <circle cx="122" cy="196" r="19" fill="url(#bubbleB)" />
  <circle cx="128" cy="149" r="27" fill="url(#bubbleA)" />
  <circle cx="2" cy="246" r="17" fill="url(#bubbleB)" />
  <circle cx="222" cy="103" r="7" fill="url(#bubbleA)" />
  <circle cx="108" cy="228" r="15" fill="url(#bubbleB)" />
  <circle cx="232" cy="71" r="11" fill="url(#bubbleA)" />
  <circle cx="254" cy="69" r="7" fill="url(#bubbleB)" />
  <circle cx="116" cy="59" r="7" fill="url(#bubbleA)" />
  <circle cx="39" cy="150" r="24" fill="url(#bubbleB)" />
  <circle cx="47" cy="170" r="27" fill="url(#bubbleA)" />
  <circle cx="139" cy="67" r="10" fill="url(#bubbleB)" />
  <circle cx="8" cy="57" r="20" fill="url(#bubbleA)" />
  <circle cx="82" cy="253" r="17" fill="url(#bubbleB)" />
  <circle cx="221" cy="249" r="12" fill="url(#bubbleA)" />
  <circle cx="192" cy="34" r="17" fill="url(#bubbleB)" />
  <circle cx="131" cy="190" r="14" fill="url(#bubbleA)" />
  <circle cx="83" cy="22" r="21" fill="url(#bubbleB)" />
  <circle cx="102" cy="236" r="22" fill="url(#bubbleA)" />
  <circle cx="173" cy="178" r="8" fill="url(#bubbleB)" />
  <circle cx="254" cy="183" r="19" fill="url(#bubbleA)" />
  <circle cx="238" cy="255" r="21" fill="url(#bubbleB)" />
  <circle cx="26" cy="163" r="23" fill="url(#bubbleA)" />
  <circle cx="237" cy="108" r="25" fill="url(#bubbleB)" />
  <circle cx="171" cy="6" r="10" fill="url(#bubbleA)" />
  <circle cx="225" cy="255" r="6" fill="url(#bubbleB)" />
  <circle cx="176" cy="203" r="24" fill="url(#bubbleA)" />
  <circle cx="211" cy="183" r="25" fill="url(#bubbleB)" />
  <circle cx="159" cy="212" r="7" fill="url(#bubbleA)" />
  <circle cx="237" cy="169" r="7" fill="url(#bubbleB)" />
  <circle cx="4" cy="54" r="27" fill="url(#bubbleA)" />
  <circle cx="61" cy="185" r="18" fill="url(#bubbleB)" />
  <circle cx="166" cy="81" r="16" fill="url(#bubbleA)" />
  <circle cx="187" cy="16" r="14" fill="url(#bubbleB)" />
  <circle cx="141" cy="181" r="25" fill="url(#bubbleA)" />
  <circle cx="126" cy="204" r="27" fill="url(#bubbleB)" />
  <circle cx="7" cy="179" r="11" fill="url(#bubbleA)" />
  <circle cx="36" cy="221" r="28" fill="url(#bubbleB)" />
  <circle cx="120" cy="21" r="23" fill="url(#bubbleA)" />
  <circle cx="4" cy="196" r="23" fill="url(#bubbleB)" />
  <circle cx="25" cy="97" r="22" fill="url(#bubbleA)" />
  <circle cx="78" cy="251" r="12" fill="url(#bubbleB)" />
  <circle cx="6" cy="51" r="18" fill="url(#bubbleA)" />
  <circle cx="68" cy="157" r="16" fill="url(#bubbleB)" />
  <circle cx="85" cy="133" r="22" fill="url(#bubbleA)" />
  <circle cx="130" cy="22" r="23" fill="url(#bubbleB)" />
  <circle cx="182" cy="69" r="24" fill="url(#bubbleA)" />
  <circle cx="36" cy="17" r="17" fill="url(#bubbleB)" />
  <circle cx="131" cy="45" r="21" fill="url(#bubbleA)" />
  <circle cx="111" cy="65" r="11" fill="url(#bubbleB)" />
  <circle cx="239" cy="62" r="9" fill="url(#bubbleA)" />
  <circle cx="162" cy="32" r="9" fill="url(#bubbleB)" />
  <circle cx="71" cy="13" r="28" fill="url(#bubbleA)" />
  <circle cx="11" cy="240" r="27" fill="url(#bubbleB)" />
  <circle cx="135" cy="232" r="13" fill="url(#bubbleA)" />
  <circle cx="29" cy="218" r="26" fill="url(#bubbleB)" />
  <circle cx="19" cy="24" r="27" fill="url(#bubbleA)" />
  <circle cx="141" cy="215" r="17" fill="url(#bubbleB)" />
  <circle cx="122" cy="117" r="14" fill="url(#bubbleA)" />
  <circle cx="256" cy="211" r="24" fill="url(#bubbleB)" />
  <circle cx="115" cy="106" r="24" fill="url(#bubbleA)" />
  <circle cx="50" cy="116" r="19" fill="url(#bubbleB)" />
  <circle cx="240" cy="73" r="21" fill="url(#bubbleA)" />
  <circle cx="137" cy="208" r="25" fill="url(#bubbleB)" />
  <circle cx="86" cy="165" r="12" fill="url(#bubbleA)" />
  <circle cx="219" cy="14" r="28" fill="url(#bubbleB)" />
  <circle cx="26" cy="43" r="15" fill="url(#bubbleA)" />
  <circle cx="103" cy="136" r="26" fill="url(#bubbleB)" />
  <circle cx="71" cy="51" r="13" fill="url(#bubbleA)" />
  <circle cx="192" cy="221" r="14" fill="url(#bubbleB)" />
  <circle cx="71" cy="236" r="10" fill="url(#bubbleA)" />
  <circle cx="156" cy="26" r="12" fill="url(#bubbleB)" />
  <circle cx="235" cy="71" r="7" fill="url(#bubbleA)" />
  <circle cx="174" cy="238" r="8" fill="url(#bubbleB)" />
  <circle cx="44" cy="98" r="26" fill="url(#bubbleA)" />
  <circle cx="76" cy="166" r="9" fill="url(#bubbleB)" />
  <circle cx="37" cy="2" r="21" fill="url(#bubbleA)" />
  <circle cx="143" cy="227" r="8" fill="url(#bubbleB)" />
  <circle cx="217" cy="104" r="6" fill="url(#bubbleA)" />
  <circle cx="142" cy="230" r="13" fill="url(#bubbleB)" />
  <circle cx="54" cy="40" r="18" fill="url(#bubbleA)" />
  <circle cx="27" cy="229" r="24" fill="url(#bubbleB)" />
  <circle cx="18" cy="148" r="23" fill="url(#bubbleA)" />
  <circle cx="144" cy="27" r="15" fill="url(#bubbleB)" />
  <circle cx="253" cy="149" r="21" fill="url(#bubbleA)" />
  <circle cx="15" cy="48" r="18" fill="url(#bubbleB)" />
  <circle cx="129" cy="105" r="11" fill="url(#bubbleA)" />
  <circle cx="34" cy="214" r="10" fill="url(#bubbleB)" />
  <circle cx="144" cy="56" r="12" fill="url(#bubbleA)" />
  <circle cx="101" cy="4" r="26" fill="url(#bubbleB)" />
  <circle cx="45" cy="196" r="3" fill="url(#bubbleB)" opacity="0.6" />
  <circle cx="16" cy="48" r="5" fill="url(#bubbleA)" opacity="0.6" />
  <circle cx="48" cy="182" r="4" fill="url(#bubbleB)" opacity="0.6" />
  <circle cx="192" cy="138" r="3" fill="url(#bubbleA)" opacity="0.6" />
  <circle cx="124" cy="101" r="4" fill="url(#bubbleB)" opacity="0.6" />
  <circle cx="30" cy="66" r="3" fill="url(#bubbleA)" opacity="0.6" />
  <circle cx="221" cy="254" r="5" fill="url(#bubbleB)" opacity="0.6" />
  <circle cx="59" cy="182" r="2" fill="url(#bubbleA)" opacity="0.6" />
  <circle cx="74" cy="107" r="2" fill="url(#bubbleB)" opacity="0.6" />
  <circle cx="169" cy="84" r="2" fill="url(#bubbleA)" opacity="0.6" />
  <circle cx="13" cy="11" r="4" fill="url(#bubbleB)" opacity="0.6" />
  <circle cx="197" cy="93" r="6" fill="url(#bubbleA)" opacity="0.6" />
  <circle cx="102" cy="239" r="3" fill="url(#bubbleB)" opacity="0.6" />
  <circle cx="240" cy="174" r="4" fill="url(#bubbleA)" opacity="0.6" />
  <circle cx="110" cy="114" r="4" fill="url(#bubbleB)" opacity="0.6" />
  <circle cx="17" cy="178" r="3" fill="url(#bubbleA)" opacity="0.6" />
  <circle cx="161" cy="67" r="6" fill="url(#bubbleB)" opacity="0.6" />
  <circle cx="19" cy="174" r="5" fill="url(#bubbleA)" opacity="0.6" />
  <circle cx="8" cy="151" r="6" fill="url(#bubbleB)" opacity="0.6" />
  <circle cx="245" cy="67" r="4" fill="url(#bubbleA)" opacity="0.6" />
  <circle cx="32" cy="162" r="3" fill="url(#bubbleB)" opacity="0.6" />
  <circle cx="239" cy="224" r="2" fill="url(#bubbleA)" opacity="0.6" />
  <circle cx="87" cy="130" r="6" fill="url(#bubbleB)" opacity="0.6" />
  <circle cx="144" cy="12" r="5" fill="url(#bubbleA)" opacity="0.6" />
  <circle cx="30" cy="50" r="3" fill="url(#bubbleB)" opacity="0.6" />
  <circle cx="143" cy="170" r="6" fill="url(#bubbleA)" opacity="0.6" />
  <circle cx="110" cy="69" r="4" fill="url(#bubbleB)" opacity="0.6" />
  <circle cx="223" cy="198" r="2" fill="url(#bubbleA)" opacity="0.6" />
  <circle cx="54" cy="1" r="6" fill="url(#bubbleB)" opacity="0.6" />
  <circle cx="152" cy="136" r="4" fill="url(#bubbleA)" opacity="0.6" />
  <circle cx="169" cy="96" r="6" fill="url(#bubbleB)" opacity="0.6" />
  <circle cx="132" cy="171" r="6" fill="url(#bubbleA)" opacity="0.6" />
  <circle cx="33" cy="28" r="5" fill="url(#bubbleB)" opacity="0.6" />
  <circle cx="221" cy="192" r="6" fill="url(#bubbleA)" opacity="0.6" />
  <circle cx="247" cy="243" r="3" fill="url(#bubbleB)" opacity="0.6" />
  <circle cx="241" cy="111" r="4" fill="url(#bubbleA)" opacity="0.6" />
  <circle cx="198" cy="216" r="4" fill="url(#bubbleB)" opacity="0.6" />
  <circle cx="242" cy="134" r="2" fill="url(#bubbleA)" opacity="0.6" />
  <circle cx="130" cy="217" r="2" fill="url(#bubbleB)" opacity="0.6" />
  <circle cx="24" cy="103" r="6" fill="url(#bubbleA)" opacity="0.6" />
  <circle cx="188" cy="194" r="3" fill="url(#bubbleB)" opacity="0.6" />
  <circle cx="28" cy="35" r="6" fill="url(#bubbleA)" opacity="0.6" />
  <circle cx="177" cy="178" r="4" fill="url(#bubbleB)" opacity="0.6" />
  <circle cx="20" cy="68" r="4" fill="url(#bubbleA)" opacity="0.6" />
  <circle cx="249" cy="27" r="5" fill="url(#bubbleB)" opacity="0.6" />
  <circle cx="159" cy="123" r="3" fill="url(#bubbleA)" opacity="0.6" />
  <circle cx="47" cy="112" r="3" fill="url(#bubbleB)" opacity="0.6" />
  <circle cx="256" cy="203" r="2" fill="url(#bubbleA)" opacity="0.6" />
  <circle cx="135" cy="4" r="5" fill="url(#bubbleB)" opacity="0.6" />
  <circle cx="42" cy="183" r="4" fill="url(#bubbleA)" opacity="0.6" />
  <circle cx="224" cy="28" r="4" fill="url(#bubbleB)" opacity="0.6" />
  <circle cx="8" cy="151" r="5" fill="url(#bubbleA)" opacity="0.6" />
  <circle cx="53" cy="11" r="2" fill="url(#bubbleB)" opacity="0.6" />
  <circle cx="180" cy="78" r="2" fill="url(#bubbleA)" opacity="0.6" />
  <circle cx="14" cy="7" r="4" fill="url(#bubbleB)" opacity="0.6" />
  <circle cx="217" cy="126" r="4" fill="url(#bubbleA)" opacity="0.6" />
  <circle cx="252" cy="180" r="5" fill="url(#bubbleB)" opacity="0.6" />
  <circle cx="10" cy="117" r="6" fill="url(#bubbleA)" opacity="0.6" />
  <circle cx="167" cy="88" r="4" fill="url(#bubbleB)" opacity="0.6" />
  <circle cx="138" cy="142" r="2" fill="url(#bubbleA)" opacity="0.6" />
  <circle cx="89" cy="134" r="6" fill="url(#bubbleB)" opacity="0.6" />
  <circle cx="202" cy="242" r="5" fill="url(#bubbleA)" opacity="0.6" />
  <circle cx="49" cy="167" r="3" fill="url(#bubbleB)" opacity="0.6" />
  <circle cx="143" cy="252" r="5" fill="url(#bubbleA)" opacity="0.6" />
  <circle cx="193" cy="219" r="5" fill="url(#bubbleB)" opacity="0.6" />
  <circle cx="166" cy="109" r="2" fill="url(#bubbleA)" opacity="0.6" />
  <circle cx="178" cy="59" r="4" fill="url(#bubbleB)" opacity="0.6" />
  <circle cx="9" cy="111" r="4" fill="url(#bubbleA)" opacity="0.6" />
  <circle cx="137" cy="209" r="4" fill="url(#bubbleB)" opacity="0.6" />
  <circle cx="65" cy="210" r="5" fill="url(#bubbleA)" opacity="0.6" />
  <circle cx="47" cy="213" r="6" fill="url(#bubbleB)" opacity="0.6" />
  <circle cx="80" cy="195" r="2" fill="url(#bubbleA)" opacity="0.6" />
  <circle cx="97" cy="248" r="6" fill="url(#bubbleB)" opacity="0.6" />
  <circle cx="46" cy="133" r="4" fill="url(#bubbleA)" opacity="0.6" />
  <circle cx="40" cy="16" r="2" fill="url(#bubbleB)" opacity="0.6" />
  <circle cx="160" cy="182" r="4" fill="url(#bubbleA)" opacity="0.6" />
  <circle cx="256" cy="120" r="6" fill="url(#bubbleB)" opacity="0.6" />
  <circle cx="180" cy="47" r="6" fill="url(#bubbleA)" opacity="0.6" />
  <circle cx="183" cy="71" r="4" fill="url(#bubbleB)" opacity="0.6" />
  <circle cx="93" cy="72" r="5" fill="url(#bubbleA)" opacity="0.6" />
  <path d="M0 136 C 60 120, 120 150, 256 128" stroke="#00e5ff" stroke-width="3" fill="none" opacity="0.8" />
  <path d="M0 140 C 60 124, 120 154, 256 132" stroke="#00bcd4" stroke-width="1.5" fill="none" opacity="0.6" />

</svg>
