<svg xmlns="http://www.w3.org/2000/svg" width="256" height="256" viewBox="0 0 256 256">
  <defs>
    <linearGradient id="bg" x1="0" y1="0" x2="1" y2="1">
      <stop offset="0" stop-color="#f5f5f5" />
      <stop offset="1" stop-color="#bdbdbd" />
    </linearGradient>
    <linearGradient id="banner" x1="0" y1="0" x2="1" y2="0">
      <stop offset="0" stop-color="#d9d9d9" />
      <stop offset="1" stop-color="#8f8f8f" />
    </linearGradient>
    <radialGradient id="catA" cx="50%" cy="40%" r="60%">
      <stop offset="0" stop-color="#ffffff" stop-opacity="0.9" />
      <stop offset="0.7" stop-color="#cfcfcf" stop-opacity="0.6" />
      <stop offset="1" stop-color="#8a8a8a" stop-opacity="0.2" />
    </radialGradient>
    <pattern id="dust" width="5" height="5" patternUnits="userSpaceOnUse">
      <circle cx="1" cy="1" r="0.6" fill="#000" opacity="0.12" />
      <circle cx="4" cy="3" r="0.5" fill="#000" opacity="0.1" />
    </pattern>
  </defs>

  <rect width="256" height="256" fill="url(#bg)" />
  <rect width="256" height="256" fill="url(#dust)" opacity="0.25" />

  <rect x="0" y="142" width="256" height="26" fill="url(#banner)" opacity="0.5" />
  <path d="M0 144 C 80 132, 160 160, 256 138" stroke="#00e5ff" stroke-width="2.5" fill="none" opacity="0.7" />

  <circle cx="64" cy="96" r="46" fill="url(#catA)" />
  <circle cx="128" cy="84" r="58" fill="url(#catA)" />
  <circle cx="196" cy="98" r="44" fill="url(#catA)" />

  <path d="M38 70 L 56 44 L 74 70" fill="url(#catA)" />
  <path d="M102 60 L 128 30 L 154 60" fill="url(#catA)" />
  <path d="M176 70 L 196 46 L 216 70" fill="url(#catA)" />

  <circle cx="60" cy="98" r="8" fill="#111" opacity="0.25" />
  <circle cx="68" cy="98" r="8" fill="#111" opacity="0.25" />
  <circle cx="120" cy="90" r="10" fill="#111" opacity="0.25" />
  <circle cx="136" cy="90" r="10" fill="#111" opacity="0.25" />
  <circle cx="188" cy="100" r="8" fill="#111" opacity="0.25" />
  <circle cx="200" cy="100" r="8" fill="#111" opacity="0.25" />

  <circle cx="64" cy="122" r="6" fill="#000" opacity="0.18" />
  <circle cx="128" cy="118" r="7" fill="#000" opacity="0.18" />
  <circle cx="196" cy="122" r="6" fill="#000" opacity="0.18" />

  <path d="M28 158 L 56 136 L 84 158 L 56 180 Z" fill="#c0c0c0" opacity="0.45" />
  <path d="M96 162 L 128 132 L 160 162 L 128 192 Z" fill="#b0b0b0" opacity="0.45" />
  <path d="M168 158 L 196 136 L 224 158 L 196 180 Z" fill="#c0c0c0" opacity="0.45" />

  <circle cx="32" cy="44" r="4" fill="#00e5ff" opacity="0.6" />
  <circle cx="220" cy="44" r="4" fill="#00e5ff" opacity="0.6" />
  <circle cx="40" cy="210" r="3" fill="#00e5ff" opacity="0.5" />
  <circle cx="216" cy="212" r="3" fill="#00e5ff" opacity="0.5" />
</svg>
